M48
;DRILL file {KiCad 4.0.4-stable} date Monday, December 05, 2016 'PMt' 07:15:35 PM
;FORMAT={-:-/ absolute / inch / decimal}
FMAT,2
INCH,TZ
T1C0.016
T2C0.028
T3C0.031
T4C0.032
T5C0.039
T6C0.039
%
G90
G05
M72
T1
X2.3327Y-1.9094
X2.5689Y-2.687
X2.8248Y-2.3031
X2.9232Y-2.1654
X3.248Y-2.5394
X3.2776Y-2.5787
X3.3465Y-2.4311
X3.3465Y-2.5591
X3.3858Y-1.8996
X3.3858Y-2.4606
X3.4843Y-2.5591
X3.5039Y-1.8996
T2
X1.8701Y-2.5
X1.8701Y-2.5984
X3.1201Y-1.4665
X3.1201Y-1.565
X3.2972Y-1.8209
X3.3957Y-1.8209
X3.8287Y-1.4665
X3.8287Y-1.565
T3
X3.435Y-2.8543
X3.5138Y-2.8543
X4.4882Y-2.8543
X4.5669Y-2.8543
T4
X1.9563Y-1.3437
X1.9563Y-1.4437
X1.9563Y-1.5437
X1.9563Y-1.6437
X1.9563Y-1.7437
X1.9563Y-1.8437
X1.9563Y-1.9437
X2.0327Y-2.5862
X2.0327Y-2.8862
X2.1327Y-2.5862
X2.1327Y-2.8862
X2.2327Y-2.5862
X2.2327Y-2.8862
X2.2563Y-1.3437
X2.2563Y-1.4437
X2.2563Y-1.5437
X2.2563Y-1.6437
X2.2563Y-1.7437
X2.2563Y-1.8437
X2.2563Y-1.9437
X2.3327Y-2.5862
X2.3327Y-2.8862
X2.4327Y-2.5862
X2.4327Y-2.8862
X2.5327Y-2.5862
X2.5327Y-2.8862
X2.6256Y-1.3535
X2.6256Y-1.4535
X2.6256Y-1.5535
X2.6256Y-1.6535
X2.6256Y-1.7535
X2.6256Y-1.8535
X2.6256Y-1.9535
X2.6327Y-2.5862
X2.6327Y-2.8862
X2.9256Y-1.3535
X2.9256Y-1.4535
X2.9256Y-1.5535
X2.9256Y-1.6535
X2.9256Y-1.7535
X2.9256Y-1.8535
X2.9256Y-1.9535
X3.3047Y-1.3657
X3.3047Y-1.6657
X3.4047Y-1.3657
X3.4047Y-1.6657
X3.5047Y-1.3657
X3.5047Y-1.6657
X3.6047Y-1.3657
X3.6047Y-1.6657
X4.0429Y-1.3657
X4.0429Y-1.6657
X4.1429Y-1.3657
X4.1429Y-1.6657
X4.2429Y-1.3657
X4.2429Y-1.6657
X4.3429Y-1.3657
X4.3429Y-1.6657
T5
X4.1354Y-2.6327
X4.2354Y-2.6327
X4.3354Y-2.6327
X4.4354Y-2.6327
X4.5354Y-2.6327
X4.6354Y-2.6327
X4.7354Y-2.6327
T6
X2.1359Y-2.2638
X2.3328Y-2.2638
X2.4803Y-2.1948
X2.4803Y-2.3917
X2.6378Y-2.1949
X2.6378Y-2.3918
X2.815Y-2.1948
X2.815Y-2.3917
X2.9134Y-2.687
X2.9134Y-2.8839
X3.0512Y-2.1948
X3.0512Y-2.3917
X3.3354Y-2.0327
X3.3354Y-2.6327
X3.4354Y-2.0327
X3.4354Y-2.6327
X3.5354Y-2.0327
X3.5354Y-2.6327
X3.6354Y-2.0327
X3.6354Y-2.6327
X3.7354Y-2.0327
X3.7354Y-2.6327
X3.8354Y-2.0327
X3.8354Y-2.6327
X3.9354Y-2.0327
X3.9354Y-2.6327
X4.0354Y-2.0327
X4.0354Y-2.6327
X4.1354Y-2.0327
X4.1535Y-1.8602
X4.2354Y-2.0327
X4.3354Y-2.0327
X4.3504Y-1.8602
X4.4354Y-2.0327
X4.5078Y-1.7717
X4.5354Y-2.0327
X4.6354Y-2.0327
X4.7047Y-1.7717
X4.7354Y-2.0327
T0
M30
