G04 #@! TF.FileFunction,Legend,Top*
%FSLAX46Y46*%
G04 Gerber Fmt 4.6, Leading zero omitted, Abs format (unit mm)*
G04 Created by KiCad (PCBNEW 4.0.4-stable) date Monday, December 05, 2016 'PMt' 07:15:31 PM*
%MOMM*%
%LPD*%
G01*
G04 APERTURE LIST*
%ADD10C,0.100000*%
%ADD11C,0.150000*%
%ADD12C,0.381000*%
%ADD13C,0.203200*%
%ADD14C,0.285750*%
%ADD15C,0.287020*%
G04 APERTURE END LIST*
D10*
D11*
X80500000Y-36500000D02*
X80500000Y-40500000D01*
X78000000Y-36500000D02*
X78000000Y-40500000D01*
X46250000Y-66750000D02*
X46250000Y-62750000D01*
X48750000Y-66750000D02*
X48750000Y-62750000D01*
X83000000Y-45000000D02*
X87000000Y-45000000D01*
X83000000Y-47500000D02*
X87000000Y-47500000D01*
X96000000Y-40500000D02*
X96000000Y-36500000D01*
X98500000Y-40500000D02*
X98500000Y-36500000D01*
X115075000Y-70001000D02*
X115075000Y-74999000D01*
X115215000Y-70009000D02*
X115215000Y-72346000D01*
X115215000Y-72654000D02*
X115215000Y-74991000D01*
X115355000Y-70025000D02*
X115355000Y-72027000D01*
X115355000Y-72973000D02*
X115355000Y-74975000D01*
X115495000Y-70049000D02*
X115495000Y-71880000D01*
X115495000Y-73120000D02*
X115495000Y-74951000D01*
X115635000Y-70082000D02*
X115635000Y-71788000D01*
X115635000Y-73212000D02*
X115635000Y-74918000D01*
X115775000Y-70123000D02*
X115775000Y-71732000D01*
X115775000Y-73268000D02*
X115775000Y-74877000D01*
X115915000Y-70173000D02*
X115915000Y-71705000D01*
X115915000Y-73295000D02*
X115915000Y-74827000D01*
X116055000Y-70234000D02*
X116055000Y-71702000D01*
X116055000Y-73298000D02*
X116055000Y-74766000D01*
X116195000Y-70304000D02*
X116195000Y-71724000D01*
X116195000Y-73276000D02*
X116195000Y-74696000D01*
X116335000Y-70386000D02*
X116335000Y-71774000D01*
X116335000Y-73226000D02*
X116335000Y-74614000D01*
X116475000Y-70481000D02*
X116475000Y-71856000D01*
X116475000Y-73144000D02*
X116475000Y-74519000D01*
X116615000Y-70592000D02*
X116615000Y-71988000D01*
X116615000Y-73012000D02*
X116615000Y-74408000D01*
X116755000Y-70720000D02*
X116755000Y-72235000D01*
X116755000Y-72765000D02*
X116755000Y-74280000D01*
X116895000Y-70869000D02*
X116895000Y-74131000D01*
X117035000Y-71048000D02*
X117035000Y-73952000D01*
X117175000Y-71267000D02*
X117175000Y-73733000D01*
X117315000Y-71556000D02*
X117315000Y-73444000D01*
X117455000Y-72028000D02*
X117455000Y-72972000D01*
X116800000Y-72500000D02*
G75*
G03X116800000Y-72500000I-800000J0D01*
G01*
X117537500Y-72500000D02*
G75*
G03X117537500Y-72500000I-2537500J0D01*
G01*
X88325000Y-70001000D02*
X88325000Y-74999000D01*
X88465000Y-70009000D02*
X88465000Y-72346000D01*
X88465000Y-72654000D02*
X88465000Y-74991000D01*
X88605000Y-70025000D02*
X88605000Y-72027000D01*
X88605000Y-72973000D02*
X88605000Y-74975000D01*
X88745000Y-70049000D02*
X88745000Y-71880000D01*
X88745000Y-73120000D02*
X88745000Y-74951000D01*
X88885000Y-70082000D02*
X88885000Y-71788000D01*
X88885000Y-73212000D02*
X88885000Y-74918000D01*
X89025000Y-70123000D02*
X89025000Y-71732000D01*
X89025000Y-73268000D02*
X89025000Y-74877000D01*
X89165000Y-70173000D02*
X89165000Y-71705000D01*
X89165000Y-73295000D02*
X89165000Y-74827000D01*
X89305000Y-70234000D02*
X89305000Y-71702000D01*
X89305000Y-73298000D02*
X89305000Y-74766000D01*
X89445000Y-70304000D02*
X89445000Y-71724000D01*
X89445000Y-73276000D02*
X89445000Y-74696000D01*
X89585000Y-70386000D02*
X89585000Y-71774000D01*
X89585000Y-73226000D02*
X89585000Y-74614000D01*
X89725000Y-70481000D02*
X89725000Y-71856000D01*
X89725000Y-73144000D02*
X89725000Y-74519000D01*
X89865000Y-70592000D02*
X89865000Y-71988000D01*
X89865000Y-73012000D02*
X89865000Y-74408000D01*
X90005000Y-70720000D02*
X90005000Y-72235000D01*
X90005000Y-72765000D02*
X90005000Y-74280000D01*
X90145000Y-70869000D02*
X90145000Y-74131000D01*
X90285000Y-71048000D02*
X90285000Y-73952000D01*
X90425000Y-71267000D02*
X90425000Y-73733000D01*
X90565000Y-71556000D02*
X90565000Y-73444000D01*
X90705000Y-72028000D02*
X90705000Y-72972000D01*
X90050000Y-72500000D02*
G75*
G03X90050000Y-72500000I-800000J0D01*
G01*
X90787500Y-72500000D02*
G75*
G03X90787500Y-72500000I-2537500J0D01*
G01*
D12*
X119010000Y-60520000D02*
X124090000Y-60520000D01*
X119010000Y-57980000D02*
X124090000Y-57980000D01*
X121550000Y-63060000D02*
X121550000Y-55440000D01*
X124090000Y-63060000D02*
X119010000Y-63060000D01*
X119010000Y-63060000D02*
X119010000Y-55440000D01*
X119010000Y-55440000D02*
X124090000Y-55440000D01*
X80910000Y-68140000D02*
X124090000Y-68140000D01*
X124090000Y-50360000D02*
X80910000Y-50360000D01*
X124090000Y-50360000D02*
X124090000Y-68140000D01*
X80910000Y-50360000D02*
X80910000Y-68140000D01*
X124090000Y-66870000D02*
G75*
G03X124090000Y-66870000I-1270000J0D01*
G01*
X124090000Y-51630000D02*
G75*
G03X124090000Y-51630000I-1270000J0D01*
G01*
X83450000Y-66870000D02*
G75*
G03X83450000Y-66870000I-1270000J0D01*
G01*
X83450000Y-51630000D02*
G75*
G03X83450000Y-51630000I-1270000J0D01*
G01*
X83450000Y-65600000D02*
X121550000Y-65600000D01*
X121550000Y-52900000D02*
X83450000Y-52900000D01*
X83450000Y-50360000D02*
X83450000Y-52900000D01*
X83450000Y-65600000D02*
X83450000Y-68140000D01*
X121550000Y-68140000D02*
X121550000Y-65600000D01*
X121550000Y-50360000D02*
X121550000Y-52900000D01*
X52230000Y-50640000D02*
X54770000Y-50640000D01*
X56802000Y-31844000D02*
X56802000Y-51656000D01*
X50198000Y-51656000D02*
X50198000Y-31844000D01*
X54770000Y-50640000D02*
X54770000Y-51656000D01*
X52230000Y-50640000D02*
X52230000Y-51656000D01*
X50198000Y-31844000D02*
X56802000Y-31844000D01*
X56802000Y-51656000D02*
X50198000Y-51656000D01*
X71770000Y-33110000D02*
X69230000Y-33110000D01*
X67198000Y-51906000D02*
X67198000Y-32094000D01*
X73802000Y-32094000D02*
X73802000Y-51906000D01*
X69230000Y-33110000D02*
X69230000Y-32094000D01*
X71770000Y-33110000D02*
X71770000Y-32094000D01*
X73802000Y-51906000D02*
X67198000Y-51906000D01*
X67198000Y-32094000D02*
X73802000Y-32094000D01*
X93846000Y-41802000D02*
X81654000Y-41802000D01*
X81654000Y-35198000D02*
X93846000Y-35198000D01*
X82670000Y-37230000D02*
X81654000Y-37230000D01*
X82670000Y-39770000D02*
X81654000Y-39770000D01*
X93846000Y-35198000D02*
X93846000Y-41802000D01*
X81654000Y-41802000D02*
X81654000Y-35198000D01*
X82670000Y-37230000D02*
X82670000Y-39770000D01*
X50360000Y-68230000D02*
X50360000Y-70770000D01*
X69156000Y-72802000D02*
X49344000Y-72802000D01*
X49344000Y-66198000D02*
X69156000Y-66198000D01*
X50360000Y-70770000D02*
X49344000Y-70770000D01*
X50360000Y-68230000D02*
X49344000Y-68230000D01*
X69156000Y-66198000D02*
X69156000Y-72802000D01*
X49344000Y-72802000D02*
X49344000Y-66198000D01*
X112596000Y-41802000D02*
X100404000Y-41802000D01*
X100404000Y-35198000D02*
X112596000Y-35198000D01*
X101420000Y-37230000D02*
X100404000Y-37230000D01*
X101420000Y-39770000D02*
X100404000Y-39770000D01*
X112596000Y-35198000D02*
X112596000Y-41802000D01*
X100404000Y-41802000D02*
X100404000Y-35198000D01*
X101420000Y-37230000D02*
X101420000Y-39770000D01*
D11*
X56650940Y-57500000D02*
X57651700Y-57500000D01*
X56750000Y-57500000D02*
G75*
G03X56750000Y-57500000I-2499360J0D01*
G01*
X71500000Y-58349060D02*
X71500000Y-57348300D01*
X73999360Y-60749360D02*
G75*
G03X73999360Y-60749360I-2499360J0D01*
G01*
X67000000Y-58150940D02*
X67000000Y-59151700D01*
X69499360Y-55750640D02*
G75*
G03X69499360Y-55750640I-2499360J0D01*
G01*
X74000000Y-70650940D02*
X74000000Y-71651700D01*
X76499360Y-68250640D02*
G75*
G03X76499360Y-68250640I-2499360J0D01*
G01*
X77500000Y-58349060D02*
X77500000Y-57348300D01*
X79999360Y-60749360D02*
G75*
G03X79999360Y-60749360I-2499360J0D01*
G01*
X63000000Y-58349060D02*
X63000000Y-57348300D01*
X65499360Y-60749360D02*
G75*
G03X65499360Y-60749360I-2499360J0D01*
G01*
X108099060Y-47250000D02*
X107098300Y-47250000D01*
X112998720Y-47250000D02*
G75*
G03X112998720Y-47250000I-2499360J0D01*
G01*
X117099060Y-45000000D02*
X116098300Y-45000000D01*
X121998720Y-45000000D02*
G75*
G03X121998720Y-45000000I-2499360J0D01*
G01*
X79607143Y-35119047D02*
X79654762Y-35166666D01*
X79702381Y-35309523D01*
X79702381Y-35404761D01*
X79654762Y-35547619D01*
X79559524Y-35642857D01*
X79464286Y-35690476D01*
X79273810Y-35738095D01*
X79130952Y-35738095D01*
X78940476Y-35690476D01*
X78845238Y-35642857D01*
X78750000Y-35547619D01*
X78702381Y-35404761D01*
X78702381Y-35309523D01*
X78750000Y-35166666D01*
X78797619Y-35119047D01*
X78702381Y-34785714D02*
X78702381Y-34166666D01*
X79083333Y-34500000D01*
X79083333Y-34357142D01*
X79130952Y-34261904D01*
X79178571Y-34214285D01*
X79273810Y-34166666D01*
X79511905Y-34166666D01*
X79607143Y-34214285D01*
X79654762Y-34261904D01*
X79702381Y-34357142D01*
X79702381Y-34642857D01*
X79654762Y-34738095D01*
X79607143Y-34785714D01*
X78702381Y-33547619D02*
X78702381Y-33452380D01*
X78750000Y-33357142D01*
X78797619Y-33309523D01*
X78892857Y-33261904D01*
X79083333Y-33214285D01*
X79321429Y-33214285D01*
X79511905Y-33261904D01*
X79607143Y-33309523D01*
X79654762Y-33357142D01*
X79702381Y-33452380D01*
X79702381Y-33547619D01*
X79654762Y-33642857D01*
X79607143Y-33690476D01*
X79511905Y-33738095D01*
X79321429Y-33785714D01*
X79083333Y-33785714D01*
X78892857Y-33738095D01*
X78797619Y-33690476D01*
X78750000Y-33642857D01*
X78702381Y-33547619D01*
X79702381Y-32261904D02*
X79702381Y-32833333D01*
X79702381Y-32547619D02*
X78702381Y-32547619D01*
X78845238Y-32642857D01*
X78940476Y-32738095D01*
X78988095Y-32833333D01*
X45357143Y-65869047D02*
X45404762Y-65916666D01*
X45452381Y-66059523D01*
X45452381Y-66154761D01*
X45404762Y-66297619D01*
X45309524Y-66392857D01*
X45214286Y-66440476D01*
X45023810Y-66488095D01*
X44880952Y-66488095D01*
X44690476Y-66440476D01*
X44595238Y-66392857D01*
X44500000Y-66297619D01*
X44452381Y-66154761D01*
X44452381Y-66059523D01*
X44500000Y-65916666D01*
X44547619Y-65869047D01*
X44452381Y-65535714D02*
X44452381Y-64916666D01*
X44833333Y-65250000D01*
X44833333Y-65107142D01*
X44880952Y-65011904D01*
X44928571Y-64964285D01*
X45023810Y-64916666D01*
X45261905Y-64916666D01*
X45357143Y-64964285D01*
X45404762Y-65011904D01*
X45452381Y-65107142D01*
X45452381Y-65392857D01*
X45404762Y-65488095D01*
X45357143Y-65535714D01*
X44452381Y-64297619D02*
X44452381Y-64202380D01*
X44500000Y-64107142D01*
X44547619Y-64059523D01*
X44642857Y-64011904D01*
X44833333Y-63964285D01*
X45071429Y-63964285D01*
X45261905Y-64011904D01*
X45357143Y-64059523D01*
X45404762Y-64107142D01*
X45452381Y-64202380D01*
X45452381Y-64297619D01*
X45404762Y-64392857D01*
X45357143Y-64440476D01*
X45261905Y-64488095D01*
X45071429Y-64535714D01*
X44833333Y-64535714D01*
X44642857Y-64488095D01*
X44547619Y-64440476D01*
X44500000Y-64392857D01*
X44452381Y-64297619D01*
X44547619Y-63583333D02*
X44500000Y-63535714D01*
X44452381Y-63440476D01*
X44452381Y-63202380D01*
X44500000Y-63107142D01*
X44547619Y-63059523D01*
X44642857Y-63011904D01*
X44738095Y-63011904D01*
X44880952Y-63059523D01*
X45452381Y-63630952D01*
X45452381Y-63011904D01*
X88630953Y-46607143D02*
X88583334Y-46654762D01*
X88440477Y-46702381D01*
X88345239Y-46702381D01*
X88202381Y-46654762D01*
X88107143Y-46559524D01*
X88059524Y-46464286D01*
X88011905Y-46273810D01*
X88011905Y-46130952D01*
X88059524Y-45940476D01*
X88107143Y-45845238D01*
X88202381Y-45750000D01*
X88345239Y-45702381D01*
X88440477Y-45702381D01*
X88583334Y-45750000D01*
X88630953Y-45797619D01*
X88964286Y-45702381D02*
X89583334Y-45702381D01*
X89250000Y-46083333D01*
X89392858Y-46083333D01*
X89488096Y-46130952D01*
X89535715Y-46178571D01*
X89583334Y-46273810D01*
X89583334Y-46511905D01*
X89535715Y-46607143D01*
X89488096Y-46654762D01*
X89392858Y-46702381D01*
X89107143Y-46702381D01*
X89011905Y-46654762D01*
X88964286Y-46607143D01*
X90202381Y-45702381D02*
X90297620Y-45702381D01*
X90392858Y-45750000D01*
X90440477Y-45797619D01*
X90488096Y-45892857D01*
X90535715Y-46083333D01*
X90535715Y-46321429D01*
X90488096Y-46511905D01*
X90440477Y-46607143D01*
X90392858Y-46654762D01*
X90297620Y-46702381D01*
X90202381Y-46702381D01*
X90107143Y-46654762D01*
X90059524Y-46607143D01*
X90011905Y-46511905D01*
X89964286Y-46321429D01*
X89964286Y-46083333D01*
X90011905Y-45892857D01*
X90059524Y-45797619D01*
X90107143Y-45750000D01*
X90202381Y-45702381D01*
X90869048Y-45702381D02*
X91488096Y-45702381D01*
X91154762Y-46083333D01*
X91297620Y-46083333D01*
X91392858Y-46130952D01*
X91440477Y-46178571D01*
X91488096Y-46273810D01*
X91488096Y-46511905D01*
X91440477Y-46607143D01*
X91392858Y-46654762D01*
X91297620Y-46702381D01*
X91011905Y-46702381D01*
X90916667Y-46654762D01*
X90869048Y-46607143D01*
X95107143Y-39619047D02*
X95154762Y-39666666D01*
X95202381Y-39809523D01*
X95202381Y-39904761D01*
X95154762Y-40047619D01*
X95059524Y-40142857D01*
X94964286Y-40190476D01*
X94773810Y-40238095D01*
X94630952Y-40238095D01*
X94440476Y-40190476D01*
X94345238Y-40142857D01*
X94250000Y-40047619D01*
X94202381Y-39904761D01*
X94202381Y-39809523D01*
X94250000Y-39666666D01*
X94297619Y-39619047D01*
X94202381Y-39285714D02*
X94202381Y-38666666D01*
X94583333Y-39000000D01*
X94583333Y-38857142D01*
X94630952Y-38761904D01*
X94678571Y-38714285D01*
X94773810Y-38666666D01*
X95011905Y-38666666D01*
X95107143Y-38714285D01*
X95154762Y-38761904D01*
X95202381Y-38857142D01*
X95202381Y-39142857D01*
X95154762Y-39238095D01*
X95107143Y-39285714D01*
X94202381Y-38047619D02*
X94202381Y-37952380D01*
X94250000Y-37857142D01*
X94297619Y-37809523D01*
X94392857Y-37761904D01*
X94583333Y-37714285D01*
X94821429Y-37714285D01*
X95011905Y-37761904D01*
X95107143Y-37809523D01*
X95154762Y-37857142D01*
X95202381Y-37952380D01*
X95202381Y-38047619D01*
X95154762Y-38142857D01*
X95107143Y-38190476D01*
X95011905Y-38238095D01*
X94821429Y-38285714D01*
X94583333Y-38285714D01*
X94392857Y-38238095D01*
X94297619Y-38190476D01*
X94250000Y-38142857D01*
X94202381Y-38047619D01*
X94535714Y-36857142D02*
X95202381Y-36857142D01*
X94154762Y-37095238D02*
X94869048Y-37333333D01*
X94869048Y-36714285D01*
X113880953Y-69057143D02*
X113833334Y-69104762D01*
X113690477Y-69152381D01*
X113595239Y-69152381D01*
X113452381Y-69104762D01*
X113357143Y-69009524D01*
X113309524Y-68914286D01*
X113261905Y-68723810D01*
X113261905Y-68580952D01*
X113309524Y-68390476D01*
X113357143Y-68295238D01*
X113452381Y-68200000D01*
X113595239Y-68152381D01*
X113690477Y-68152381D01*
X113833334Y-68200000D01*
X113880953Y-68247619D01*
X114738096Y-68485714D02*
X114738096Y-69152381D01*
X114500000Y-68104762D02*
X114261905Y-68819048D01*
X114880953Y-68819048D01*
X115452381Y-68152381D02*
X115547620Y-68152381D01*
X115642858Y-68200000D01*
X115690477Y-68247619D01*
X115738096Y-68342857D01*
X115785715Y-68533333D01*
X115785715Y-68771429D01*
X115738096Y-68961905D01*
X115690477Y-69057143D01*
X115642858Y-69104762D01*
X115547620Y-69152381D01*
X115452381Y-69152381D01*
X115357143Y-69104762D01*
X115309524Y-69057143D01*
X115261905Y-68961905D01*
X115214286Y-68771429D01*
X115214286Y-68533333D01*
X115261905Y-68342857D01*
X115309524Y-68247619D01*
X115357143Y-68200000D01*
X115452381Y-68152381D01*
X116738096Y-69152381D02*
X116166667Y-69152381D01*
X116452381Y-69152381D02*
X116452381Y-68152381D01*
X116357143Y-68295238D01*
X116261905Y-68390476D01*
X116166667Y-68438095D01*
X87130953Y-69057143D02*
X87083334Y-69104762D01*
X86940477Y-69152381D01*
X86845239Y-69152381D01*
X86702381Y-69104762D01*
X86607143Y-69009524D01*
X86559524Y-68914286D01*
X86511905Y-68723810D01*
X86511905Y-68580952D01*
X86559524Y-68390476D01*
X86607143Y-68295238D01*
X86702381Y-68200000D01*
X86845239Y-68152381D01*
X86940477Y-68152381D01*
X87083334Y-68200000D01*
X87130953Y-68247619D01*
X87988096Y-68485714D02*
X87988096Y-69152381D01*
X87750000Y-68104762D02*
X87511905Y-68819048D01*
X88130953Y-68819048D01*
X88702381Y-68152381D02*
X88797620Y-68152381D01*
X88892858Y-68200000D01*
X88940477Y-68247619D01*
X88988096Y-68342857D01*
X89035715Y-68533333D01*
X89035715Y-68771429D01*
X88988096Y-68961905D01*
X88940477Y-69057143D01*
X88892858Y-69104762D01*
X88797620Y-69152381D01*
X88702381Y-69152381D01*
X88607143Y-69104762D01*
X88559524Y-69057143D01*
X88511905Y-68961905D01*
X88464286Y-68771429D01*
X88464286Y-68533333D01*
X88511905Y-68342857D01*
X88559524Y-68247619D01*
X88607143Y-68200000D01*
X88702381Y-68152381D01*
X89416667Y-68247619D02*
X89464286Y-68200000D01*
X89559524Y-68152381D01*
X89797620Y-68152381D01*
X89892858Y-68200000D01*
X89940477Y-68247619D01*
X89988096Y-68342857D01*
X89988096Y-68438095D01*
X89940477Y-68580952D01*
X89369048Y-69152381D01*
X89988096Y-69152381D01*
D13*
X101193714Y-57423619D02*
X101193714Y-58149333D01*
X101145334Y-58294476D01*
X101048572Y-58391238D01*
X100903429Y-58439619D01*
X100806667Y-58439619D01*
X102112952Y-57762286D02*
X102112952Y-58439619D01*
X101871048Y-57375238D02*
X101629143Y-58100952D01*
X102258095Y-58100952D01*
X102838667Y-57423619D02*
X102935428Y-57423619D01*
X103032190Y-57472000D01*
X103080571Y-57520381D01*
X103128952Y-57617143D01*
X103177333Y-57810667D01*
X103177333Y-58052571D01*
X103128952Y-58246095D01*
X103080571Y-58342857D01*
X103032190Y-58391238D01*
X102935428Y-58439619D01*
X102838667Y-58439619D01*
X102741905Y-58391238D01*
X102693524Y-58342857D01*
X102645143Y-58246095D01*
X102596762Y-58052571D01*
X102596762Y-57810667D01*
X102645143Y-57617143D01*
X102693524Y-57520381D01*
X102741905Y-57472000D01*
X102838667Y-57423619D01*
X104144952Y-58439619D02*
X103564381Y-58439619D01*
X103854667Y-58439619D02*
X103854667Y-57423619D01*
X103757905Y-57568762D01*
X103661143Y-57665524D01*
X103564381Y-57713905D01*
D14*
X47984571Y-42947428D02*
X47912000Y-43056285D01*
X47766857Y-43165142D01*
X47549143Y-43328428D01*
X47476571Y-43437285D01*
X47476571Y-43546142D01*
X47839429Y-43491714D02*
X47766857Y-43600571D01*
X47621714Y-43709428D01*
X47331429Y-43763857D01*
X46823429Y-43763857D01*
X46533143Y-43709428D01*
X46388000Y-43600571D01*
X46315429Y-43491714D01*
X46315429Y-43274000D01*
X46388000Y-43165142D01*
X46533143Y-43056285D01*
X46823429Y-43001857D01*
X47331429Y-43001857D01*
X47621714Y-43056285D01*
X47766857Y-43165142D01*
X47839429Y-43274000D01*
X47839429Y-43491714D01*
X46460571Y-42566428D02*
X46388000Y-42511999D01*
X46315429Y-42403142D01*
X46315429Y-42130999D01*
X46388000Y-42022142D01*
X46460571Y-41967713D01*
X46605714Y-41913285D01*
X46750857Y-41913285D01*
X46968571Y-41967713D01*
X47839429Y-42620856D01*
X47839429Y-41913285D01*
X46315429Y-41205714D02*
X46315429Y-41096857D01*
X46388000Y-40988000D01*
X46460571Y-40933571D01*
X46605714Y-40879142D01*
X46896000Y-40824714D01*
X47258857Y-40824714D01*
X47549143Y-40879142D01*
X47694286Y-40933571D01*
X47766857Y-40988000D01*
X47839429Y-41096857D01*
X47839429Y-41205714D01*
X47766857Y-41314571D01*
X47694286Y-41369000D01*
X47549143Y-41423428D01*
X47258857Y-41477857D01*
X46896000Y-41477857D01*
X46605714Y-41423428D01*
X46460571Y-41369000D01*
X46388000Y-41314571D01*
X46315429Y-41205714D01*
X47839429Y-39736143D02*
X47839429Y-40389286D01*
X47839429Y-40062714D02*
X46315429Y-40062714D01*
X46533143Y-40171571D01*
X46678286Y-40280429D01*
X46750857Y-40389286D01*
D15*
D14*
X60793429Y-45478356D02*
X59269429Y-45478356D01*
X60358000Y-45097356D01*
X59269429Y-44716356D01*
X60793429Y-44716356D01*
X60793429Y-44172070D02*
X59269429Y-44172070D01*
X59269429Y-43736642D01*
X59342000Y-43627784D01*
X59414571Y-43573356D01*
X59559714Y-43518927D01*
X59777429Y-43518927D01*
X59922571Y-43573356D01*
X59995143Y-43627784D01*
X60067714Y-43736642D01*
X60067714Y-44172070D01*
X60938571Y-42267070D02*
X60866000Y-42375927D01*
X60720857Y-42484784D01*
X60503143Y-42648070D01*
X60430571Y-42756927D01*
X60430571Y-42865784D01*
X60793429Y-42811356D02*
X60720857Y-42920213D01*
X60575714Y-43029070D01*
X60285429Y-43083499D01*
X59777429Y-43083499D01*
X59487143Y-43029070D01*
X59342000Y-42920213D01*
X59269429Y-42811356D01*
X59269429Y-42593642D01*
X59342000Y-42484784D01*
X59487143Y-42375927D01*
X59777429Y-42321499D01*
X60285429Y-42321499D01*
X60575714Y-42375927D01*
X60720857Y-42484784D01*
X60793429Y-42593642D01*
X60793429Y-42811356D01*
X59269429Y-41940498D02*
X59269429Y-41232927D01*
X59850000Y-41613927D01*
X59850000Y-41450641D01*
X59922571Y-41341784D01*
X59995143Y-41287355D01*
X60140286Y-41232927D01*
X60503143Y-41232927D01*
X60648286Y-41287355D01*
X60720857Y-41341784D01*
X60793429Y-41450641D01*
X60793429Y-41777213D01*
X60720857Y-41886070D01*
X60648286Y-41940498D01*
X60793429Y-40688642D02*
X60793429Y-40470927D01*
X60720857Y-40362070D01*
X60648286Y-40307642D01*
X60430571Y-40198784D01*
X60140286Y-40144356D01*
X59559714Y-40144356D01*
X59414571Y-40198784D01*
X59342000Y-40253213D01*
X59269429Y-40362070D01*
X59269429Y-40579784D01*
X59342000Y-40688642D01*
X59414571Y-40743070D01*
X59559714Y-40797499D01*
X59922571Y-40797499D01*
X60067714Y-40743070D01*
X60140286Y-40688642D01*
X60212857Y-40579784D01*
X60212857Y-40362070D01*
X60140286Y-40253213D01*
X60067714Y-40198784D01*
X59922571Y-40144356D01*
X59269429Y-39436785D02*
X59269429Y-39327928D01*
X59342000Y-39219071D01*
X59414571Y-39164642D01*
X59559714Y-39110213D01*
X59850000Y-39055785D01*
X60212857Y-39055785D01*
X60503143Y-39110213D01*
X60648286Y-39164642D01*
X60720857Y-39219071D01*
X60793429Y-39327928D01*
X60793429Y-39436785D01*
X60720857Y-39545642D01*
X60648286Y-39600071D01*
X60503143Y-39654499D01*
X60212857Y-39708928D01*
X59850000Y-39708928D01*
X59559714Y-39654499D01*
X59414571Y-39600071D01*
X59342000Y-39545642D01*
X59269429Y-39436785D01*
X59777429Y-38076071D02*
X60793429Y-38076071D01*
X59196857Y-38348214D02*
X60285429Y-38620357D01*
X60285429Y-37912785D01*
D15*
D14*
X77834571Y-47447428D02*
X77762000Y-47556285D01*
X77616857Y-47665142D01*
X77399143Y-47828428D01*
X77326571Y-47937285D01*
X77326571Y-48046142D01*
X77689429Y-47991714D02*
X77616857Y-48100571D01*
X77471714Y-48209428D01*
X77181429Y-48263857D01*
X76673429Y-48263857D01*
X76383143Y-48209428D01*
X76238000Y-48100571D01*
X76165429Y-47991714D01*
X76165429Y-47774000D01*
X76238000Y-47665142D01*
X76383143Y-47556285D01*
X76673429Y-47501857D01*
X77181429Y-47501857D01*
X77471714Y-47556285D01*
X77616857Y-47665142D01*
X77689429Y-47774000D01*
X77689429Y-47991714D01*
X76310571Y-47066428D02*
X76238000Y-47011999D01*
X76165429Y-46903142D01*
X76165429Y-46630999D01*
X76238000Y-46522142D01*
X76310571Y-46467713D01*
X76455714Y-46413285D01*
X76600857Y-46413285D01*
X76818571Y-46467713D01*
X77689429Y-47120856D01*
X77689429Y-46413285D01*
X76165429Y-45705714D02*
X76165429Y-45596857D01*
X76238000Y-45488000D01*
X76310571Y-45433571D01*
X76455714Y-45379142D01*
X76746000Y-45324714D01*
X77108857Y-45324714D01*
X77399143Y-45379142D01*
X77544286Y-45433571D01*
X77616857Y-45488000D01*
X77689429Y-45596857D01*
X77689429Y-45705714D01*
X77616857Y-45814571D01*
X77544286Y-45869000D01*
X77399143Y-45923428D01*
X77108857Y-45977857D01*
X76746000Y-45977857D01*
X76455714Y-45923428D01*
X76310571Y-45869000D01*
X76238000Y-45814571D01*
X76165429Y-45705714D01*
X76310571Y-44889286D02*
X76238000Y-44834857D01*
X76165429Y-44726000D01*
X76165429Y-44453857D01*
X76238000Y-44345000D01*
X76310571Y-44290571D01*
X76455714Y-44236143D01*
X76600857Y-44236143D01*
X76818571Y-44290571D01*
X77689429Y-44943714D01*
X77689429Y-44236143D01*
D15*
D14*
X64585429Y-45728356D02*
X63061429Y-45728356D01*
X64150000Y-45347356D01*
X63061429Y-44966356D01*
X64585429Y-44966356D01*
X64585429Y-44422070D02*
X63061429Y-44422070D01*
X63061429Y-43986642D01*
X63134000Y-43877784D01*
X63206571Y-43823356D01*
X63351714Y-43768927D01*
X63569429Y-43768927D01*
X63714571Y-43823356D01*
X63787143Y-43877784D01*
X63859714Y-43986642D01*
X63859714Y-44422070D01*
X64730571Y-42517070D02*
X64658000Y-42625927D01*
X64512857Y-42734784D01*
X64295143Y-42898070D01*
X64222571Y-43006927D01*
X64222571Y-43115784D01*
X64585429Y-43061356D02*
X64512857Y-43170213D01*
X64367714Y-43279070D01*
X64077429Y-43333499D01*
X63569429Y-43333499D01*
X63279143Y-43279070D01*
X63134000Y-43170213D01*
X63061429Y-43061356D01*
X63061429Y-42843642D01*
X63134000Y-42734784D01*
X63279143Y-42625927D01*
X63569429Y-42571499D01*
X64077429Y-42571499D01*
X64367714Y-42625927D01*
X64512857Y-42734784D01*
X64585429Y-42843642D01*
X64585429Y-43061356D01*
X63061429Y-42190498D02*
X63061429Y-41482927D01*
X63642000Y-41863927D01*
X63642000Y-41700641D01*
X63714571Y-41591784D01*
X63787143Y-41537355D01*
X63932286Y-41482927D01*
X64295143Y-41482927D01*
X64440286Y-41537355D01*
X64512857Y-41591784D01*
X64585429Y-41700641D01*
X64585429Y-42027213D01*
X64512857Y-42136070D01*
X64440286Y-42190498D01*
X64585429Y-40938642D02*
X64585429Y-40720927D01*
X64512857Y-40612070D01*
X64440286Y-40557642D01*
X64222571Y-40448784D01*
X63932286Y-40394356D01*
X63351714Y-40394356D01*
X63206571Y-40448784D01*
X63134000Y-40503213D01*
X63061429Y-40612070D01*
X63061429Y-40829784D01*
X63134000Y-40938642D01*
X63206571Y-40993070D01*
X63351714Y-41047499D01*
X63714571Y-41047499D01*
X63859714Y-40993070D01*
X63932286Y-40938642D01*
X64004857Y-40829784D01*
X64004857Y-40612070D01*
X63932286Y-40503213D01*
X63859714Y-40448784D01*
X63714571Y-40394356D01*
X63061429Y-39686785D02*
X63061429Y-39577928D01*
X63134000Y-39469071D01*
X63206571Y-39414642D01*
X63351714Y-39360213D01*
X63642000Y-39305785D01*
X64004857Y-39305785D01*
X64295143Y-39360213D01*
X64440286Y-39414642D01*
X64512857Y-39469071D01*
X64585429Y-39577928D01*
X64585429Y-39686785D01*
X64512857Y-39795642D01*
X64440286Y-39850071D01*
X64295143Y-39904499D01*
X64004857Y-39958928D01*
X63642000Y-39958928D01*
X63351714Y-39904499D01*
X63206571Y-39850071D01*
X63134000Y-39795642D01*
X63061429Y-39686785D01*
X63061429Y-38326071D02*
X63061429Y-38543785D01*
X63134000Y-38652642D01*
X63206571Y-38707071D01*
X63424286Y-38815928D01*
X63714571Y-38870357D01*
X64295143Y-38870357D01*
X64440286Y-38815928D01*
X64512857Y-38761500D01*
X64585429Y-38652642D01*
X64585429Y-38434928D01*
X64512857Y-38326071D01*
X64440286Y-38271642D01*
X64295143Y-38217214D01*
X63932286Y-38217214D01*
X63787143Y-38271642D01*
X63714571Y-38326071D01*
X63642000Y-38434928D01*
X63642000Y-38652642D01*
X63714571Y-38761500D01*
X63787143Y-38815928D01*
X63932286Y-38870357D01*
D15*
D14*
X85790572Y-31264629D02*
X85790572Y-32498343D01*
X85845000Y-32643486D01*
X85899429Y-32716057D01*
X86008286Y-32788629D01*
X86226000Y-32788629D01*
X86334858Y-32716057D01*
X86389286Y-32643486D01*
X86443715Y-32498343D01*
X86443715Y-31264629D01*
X86879144Y-31264629D02*
X87586715Y-31264629D01*
X87205715Y-31845200D01*
X87369001Y-31845200D01*
X87477858Y-31917771D01*
X87532287Y-31990343D01*
X87586715Y-32135486D01*
X87586715Y-32498343D01*
X87532287Y-32643486D01*
X87477858Y-32716057D01*
X87369001Y-32788629D01*
X87042429Y-32788629D01*
X86933572Y-32716057D01*
X86879144Y-32643486D01*
X88294286Y-31264629D02*
X88403143Y-31264629D01*
X88512000Y-31337200D01*
X88566429Y-31409771D01*
X88620858Y-31554914D01*
X88675286Y-31845200D01*
X88675286Y-32208057D01*
X88620858Y-32498343D01*
X88566429Y-32643486D01*
X88512000Y-32716057D01*
X88403143Y-32788629D01*
X88294286Y-32788629D01*
X88185429Y-32716057D01*
X88131000Y-32643486D01*
X88076572Y-32498343D01*
X88022143Y-32208057D01*
X88022143Y-31845200D01*
X88076572Y-31554914D01*
X88131000Y-31409771D01*
X88185429Y-31337200D01*
X88294286Y-31264629D01*
X89763857Y-32788629D02*
X89110714Y-32788629D01*
X89437286Y-32788629D02*
X89437286Y-31264629D01*
X89328429Y-31482343D01*
X89219571Y-31627486D01*
X89110714Y-31700057D01*
D15*
D14*
X85273501Y-38939429D02*
X84729215Y-38939429D01*
X84729215Y-37415429D01*
X85654501Y-38939429D02*
X85654501Y-37415429D01*
X86035501Y-38504000D01*
X86416501Y-37415429D01*
X86416501Y-38939429D01*
X87450644Y-37415429D02*
X87232930Y-37415429D01*
X87124073Y-37488000D01*
X87069644Y-37560571D01*
X86960787Y-37778286D01*
X86906358Y-38068571D01*
X86906358Y-38649143D01*
X86960787Y-38794286D01*
X87015215Y-38866857D01*
X87124073Y-38939429D01*
X87341787Y-38939429D01*
X87450644Y-38866857D01*
X87505073Y-38794286D01*
X87559501Y-38649143D01*
X87559501Y-38286286D01*
X87505073Y-38141143D01*
X87450644Y-38068571D01*
X87341787Y-37996000D01*
X87124073Y-37996000D01*
X87015215Y-38068571D01*
X86960787Y-38141143D01*
X86906358Y-38286286D01*
X88648072Y-38939429D02*
X87994929Y-38939429D01*
X88321501Y-38939429D02*
X88321501Y-37415429D01*
X88212644Y-37633143D01*
X88103786Y-37778286D01*
X87994929Y-37850857D01*
X89029072Y-37415429D02*
X89736643Y-37415429D01*
X89355643Y-37996000D01*
X89518929Y-37996000D01*
X89627786Y-38068571D01*
X89682215Y-38141143D01*
X89736643Y-38286286D01*
X89736643Y-38649143D01*
X89682215Y-38794286D01*
X89627786Y-38866857D01*
X89518929Y-38939429D01*
X89192357Y-38939429D01*
X89083500Y-38866857D01*
X89029072Y-38794286D01*
X90172071Y-37560571D02*
X90226500Y-37488000D01*
X90335357Y-37415429D01*
X90607500Y-37415429D01*
X90716357Y-37488000D01*
X90770786Y-37560571D01*
X90825214Y-37705714D01*
X90825214Y-37850857D01*
X90770786Y-38068571D01*
X90117643Y-38939429D01*
X90825214Y-38939429D01*
D15*
D14*
X57290572Y-62315429D02*
X57290572Y-63549143D01*
X57345000Y-63694286D01*
X57399429Y-63766857D01*
X57508286Y-63839429D01*
X57726000Y-63839429D01*
X57834858Y-63766857D01*
X57889286Y-63694286D01*
X57943715Y-63549143D01*
X57943715Y-62315429D01*
X58379144Y-62315429D02*
X59086715Y-62315429D01*
X58705715Y-62896000D01*
X58869001Y-62896000D01*
X58977858Y-62968571D01*
X59032287Y-63041143D01*
X59086715Y-63186286D01*
X59086715Y-63549143D01*
X59032287Y-63694286D01*
X58977858Y-63766857D01*
X58869001Y-63839429D01*
X58542429Y-63839429D01*
X58433572Y-63766857D01*
X58379144Y-63694286D01*
X59794286Y-62315429D02*
X59903143Y-62315429D01*
X60012000Y-62388000D01*
X60066429Y-62460571D01*
X60120858Y-62605714D01*
X60175286Y-62896000D01*
X60175286Y-63258857D01*
X60120858Y-63549143D01*
X60066429Y-63694286D01*
X60012000Y-63766857D01*
X59903143Y-63839429D01*
X59794286Y-63839429D01*
X59685429Y-63766857D01*
X59631000Y-63694286D01*
X59576572Y-63549143D01*
X59522143Y-63258857D01*
X59522143Y-62896000D01*
X59576572Y-62605714D01*
X59631000Y-62460571D01*
X59685429Y-62388000D01*
X59794286Y-62315429D01*
X60610714Y-62460571D02*
X60665143Y-62388000D01*
X60774000Y-62315429D01*
X61046143Y-62315429D01*
X61155000Y-62388000D01*
X61209429Y-62460571D01*
X61263857Y-62605714D01*
X61263857Y-62750857D01*
X61209429Y-62968571D01*
X60556286Y-63839429D01*
X61263857Y-63839429D01*
D15*
D14*
X56855144Y-76648286D02*
X56800715Y-76720857D01*
X56637429Y-76793429D01*
X56528572Y-76793429D01*
X56365287Y-76720857D01*
X56256429Y-76575714D01*
X56202001Y-76430571D01*
X56147572Y-76140286D01*
X56147572Y-75922571D01*
X56202001Y-75632286D01*
X56256429Y-75487143D01*
X56365287Y-75342000D01*
X56528572Y-75269429D01*
X56637429Y-75269429D01*
X56800715Y-75342000D01*
X56855144Y-75414571D01*
X57345001Y-76793429D02*
X57345001Y-75269429D01*
X57617144Y-75269429D01*
X57780429Y-75342000D01*
X57889287Y-75487143D01*
X57943715Y-75632286D01*
X57998144Y-75922571D01*
X57998144Y-76140286D01*
X57943715Y-76430571D01*
X57889287Y-76575714D01*
X57780429Y-76720857D01*
X57617144Y-76793429D01*
X57345001Y-76793429D01*
X58977858Y-75777429D02*
X58977858Y-76793429D01*
X58705715Y-75196857D02*
X58433572Y-76285429D01*
X59141144Y-76285429D01*
X59794286Y-75269429D02*
X59903143Y-75269429D01*
X60012000Y-75342000D01*
X60066429Y-75414571D01*
X60120858Y-75559714D01*
X60175286Y-75850000D01*
X60175286Y-76212857D01*
X60120858Y-76503143D01*
X60066429Y-76648286D01*
X60012000Y-76720857D01*
X59903143Y-76793429D01*
X59794286Y-76793429D01*
X59685429Y-76720857D01*
X59631000Y-76648286D01*
X59576572Y-76503143D01*
X59522143Y-76212857D01*
X59522143Y-75850000D01*
X59576572Y-75559714D01*
X59631000Y-75414571D01*
X59685429Y-75342000D01*
X59794286Y-75269429D01*
X61155000Y-75269429D02*
X60937286Y-75269429D01*
X60828429Y-75342000D01*
X60774000Y-75414571D01*
X60665143Y-75632286D01*
X60610714Y-75922571D01*
X60610714Y-76503143D01*
X60665143Y-76648286D01*
X60719571Y-76720857D01*
X60828429Y-76793429D01*
X61046143Y-76793429D01*
X61155000Y-76720857D01*
X61209429Y-76648286D01*
X61263857Y-76503143D01*
X61263857Y-76140286D01*
X61209429Y-75995143D01*
X61155000Y-75922571D01*
X61046143Y-75850000D01*
X60828429Y-75850000D01*
X60719571Y-75922571D01*
X60665143Y-75995143D01*
X60610714Y-76140286D01*
X62243571Y-75269429D02*
X62025857Y-75269429D01*
X61917000Y-75342000D01*
X61862571Y-75414571D01*
X61753714Y-75632286D01*
X61699285Y-75922571D01*
X61699285Y-76503143D01*
X61753714Y-76648286D01*
X61808142Y-76720857D01*
X61917000Y-76793429D01*
X62134714Y-76793429D01*
X62243571Y-76720857D01*
X62298000Y-76648286D01*
X62352428Y-76503143D01*
X62352428Y-76140286D01*
X62298000Y-75995143D01*
X62243571Y-75922571D01*
X62134714Y-75850000D01*
X61917000Y-75850000D01*
X61808142Y-75922571D01*
X61753714Y-75995143D01*
X61699285Y-76140286D01*
D15*
D14*
X104540572Y-31264629D02*
X104540572Y-32498343D01*
X104595000Y-32643486D01*
X104649429Y-32716057D01*
X104758286Y-32788629D01*
X104976000Y-32788629D01*
X105084858Y-32716057D01*
X105139286Y-32643486D01*
X105193715Y-32498343D01*
X105193715Y-31264629D01*
X105629144Y-31264629D02*
X106336715Y-31264629D01*
X105955715Y-31845200D01*
X106119001Y-31845200D01*
X106227858Y-31917771D01*
X106282287Y-31990343D01*
X106336715Y-32135486D01*
X106336715Y-32498343D01*
X106282287Y-32643486D01*
X106227858Y-32716057D01*
X106119001Y-32788629D01*
X105792429Y-32788629D01*
X105683572Y-32716057D01*
X105629144Y-32643486D01*
X107044286Y-31264629D02*
X107153143Y-31264629D01*
X107262000Y-31337200D01*
X107316429Y-31409771D01*
X107370858Y-31554914D01*
X107425286Y-31845200D01*
X107425286Y-32208057D01*
X107370858Y-32498343D01*
X107316429Y-32643486D01*
X107262000Y-32716057D01*
X107153143Y-32788629D01*
X107044286Y-32788629D01*
X106935429Y-32716057D01*
X106881000Y-32643486D01*
X106826572Y-32498343D01*
X106772143Y-32208057D01*
X106772143Y-31845200D01*
X106826572Y-31554914D01*
X106881000Y-31409771D01*
X106935429Y-31337200D01*
X107044286Y-31264629D01*
X107806286Y-31264629D02*
X108513857Y-31264629D01*
X108132857Y-31845200D01*
X108296143Y-31845200D01*
X108405000Y-31917771D01*
X108459429Y-31990343D01*
X108513857Y-32135486D01*
X108513857Y-32498343D01*
X108459429Y-32643486D01*
X108405000Y-32716057D01*
X108296143Y-32788629D01*
X107969571Y-32788629D01*
X107860714Y-32716057D01*
X107806286Y-32643486D01*
D15*
D14*
X98219072Y-45439429D02*
X97674786Y-45439429D01*
X97674786Y-43915429D01*
X98600072Y-45439429D02*
X98600072Y-43915429D01*
X98981072Y-45004000D01*
X99362072Y-43915429D01*
X99362072Y-45439429D01*
X99797501Y-43915429D02*
X100505072Y-43915429D01*
X100124072Y-44496000D01*
X100287358Y-44496000D01*
X100396215Y-44568571D01*
X100450644Y-44641143D01*
X100505072Y-44786286D01*
X100505072Y-45149143D01*
X100450644Y-45294286D01*
X100396215Y-45366857D01*
X100287358Y-45439429D01*
X99960786Y-45439429D01*
X99851929Y-45366857D01*
X99797501Y-45294286D01*
X101593643Y-45439429D02*
X100940500Y-45439429D01*
X101267072Y-45439429D02*
X101267072Y-43915429D01*
X101158215Y-44133143D01*
X101049357Y-44278286D01*
X100940500Y-44350857D01*
X102682214Y-45439429D02*
X102029071Y-45439429D01*
X102355643Y-45439429D02*
X102355643Y-43915429D01*
X102246786Y-44133143D01*
X102137928Y-44278286D01*
X102029071Y-44350857D01*
X103172071Y-45439429D02*
X103172071Y-43915429D01*
X103825214Y-45439429D01*
X103825214Y-43915429D01*
D15*
D11*
X57583334Y-56202381D02*
X57250000Y-55726190D01*
X57011905Y-56202381D02*
X57011905Y-55202381D01*
X57392858Y-55202381D01*
X57488096Y-55250000D01*
X57535715Y-55297619D01*
X57583334Y-55392857D01*
X57583334Y-55535714D01*
X57535715Y-55630952D01*
X57488096Y-55678571D01*
X57392858Y-55726190D01*
X57011905Y-55726190D01*
X58535715Y-56202381D02*
X57964286Y-56202381D01*
X58250000Y-56202381D02*
X58250000Y-55202381D01*
X58154762Y-55345238D01*
X58059524Y-55440476D01*
X57964286Y-55488095D01*
X71952381Y-66869047D02*
X71476190Y-67202381D01*
X71952381Y-67440476D02*
X70952381Y-67440476D01*
X70952381Y-67059523D01*
X71000000Y-66964285D01*
X71047619Y-66916666D01*
X71142857Y-66869047D01*
X71285714Y-66869047D01*
X71380952Y-66916666D01*
X71428571Y-66964285D01*
X71476190Y-67059523D01*
X71476190Y-67440476D01*
X70952381Y-66535714D02*
X70952381Y-65916666D01*
X71333333Y-66250000D01*
X71333333Y-66107142D01*
X71380952Y-66011904D01*
X71428571Y-65964285D01*
X71523810Y-65916666D01*
X71761905Y-65916666D01*
X71857143Y-65964285D01*
X71904762Y-66011904D01*
X71952381Y-66107142D01*
X71952381Y-66392857D01*
X71904762Y-66488095D01*
X71857143Y-66535714D01*
X70952381Y-65297619D02*
X70952381Y-65202380D01*
X71000000Y-65107142D01*
X71047619Y-65059523D01*
X71142857Y-65011904D01*
X71333333Y-64964285D01*
X71571429Y-64964285D01*
X71761905Y-65011904D01*
X71857143Y-65059523D01*
X71904762Y-65107142D01*
X71952381Y-65202380D01*
X71952381Y-65297619D01*
X71904762Y-65392857D01*
X71857143Y-65440476D01*
X71761905Y-65488095D01*
X71571429Y-65535714D01*
X71333333Y-65535714D01*
X71142857Y-65488095D01*
X71047619Y-65440476D01*
X71000000Y-65392857D01*
X70952381Y-65297619D01*
X71952381Y-64011904D02*
X71952381Y-64583333D01*
X71952381Y-64297619D02*
X70952381Y-64297619D01*
X71095238Y-64392857D01*
X71190476Y-64488095D01*
X71238095Y-64583333D01*
X69202381Y-65119047D02*
X68726190Y-65452381D01*
X69202381Y-65690476D02*
X68202381Y-65690476D01*
X68202381Y-65309523D01*
X68250000Y-65214285D01*
X68297619Y-65166666D01*
X68392857Y-65119047D01*
X68535714Y-65119047D01*
X68630952Y-65166666D01*
X68678571Y-65214285D01*
X68726190Y-65309523D01*
X68726190Y-65690476D01*
X68202381Y-64785714D02*
X68202381Y-64166666D01*
X68583333Y-64500000D01*
X68583333Y-64357142D01*
X68630952Y-64261904D01*
X68678571Y-64214285D01*
X68773810Y-64166666D01*
X69011905Y-64166666D01*
X69107143Y-64214285D01*
X69154762Y-64261904D01*
X69202381Y-64357142D01*
X69202381Y-64642857D01*
X69154762Y-64738095D01*
X69107143Y-64785714D01*
X68202381Y-63547619D02*
X68202381Y-63452380D01*
X68250000Y-63357142D01*
X68297619Y-63309523D01*
X68392857Y-63261904D01*
X68583333Y-63214285D01*
X68821429Y-63214285D01*
X69011905Y-63261904D01*
X69107143Y-63309523D01*
X69154762Y-63357142D01*
X69202381Y-63452380D01*
X69202381Y-63547619D01*
X69154762Y-63642857D01*
X69107143Y-63690476D01*
X69011905Y-63738095D01*
X68821429Y-63785714D01*
X68583333Y-63785714D01*
X68392857Y-63738095D01*
X68297619Y-63690476D01*
X68250000Y-63642857D01*
X68202381Y-63547619D01*
X68297619Y-62833333D02*
X68250000Y-62785714D01*
X68202381Y-62690476D01*
X68202381Y-62452380D01*
X68250000Y-62357142D01*
X68297619Y-62309523D01*
X68392857Y-62261904D01*
X68488095Y-62261904D01*
X68630952Y-62309523D01*
X69202381Y-62880952D01*
X69202381Y-62261904D01*
X77751841Y-74569067D02*
X77275650Y-74902401D01*
X77751841Y-75140496D02*
X76751841Y-75140496D01*
X76751841Y-74759543D01*
X76799460Y-74664305D01*
X76847079Y-74616686D01*
X76942317Y-74569067D01*
X77085174Y-74569067D01*
X77180412Y-74616686D01*
X77228031Y-74664305D01*
X77275650Y-74759543D01*
X77275650Y-75140496D01*
X76751841Y-74235734D02*
X76751841Y-73616686D01*
X77132793Y-73950020D01*
X77132793Y-73807162D01*
X77180412Y-73711924D01*
X77228031Y-73664305D01*
X77323270Y-73616686D01*
X77561365Y-73616686D01*
X77656603Y-73664305D01*
X77704222Y-73711924D01*
X77751841Y-73807162D01*
X77751841Y-74092877D01*
X77704222Y-74188115D01*
X77656603Y-74235734D01*
X76751841Y-72997639D02*
X76751841Y-72902400D01*
X76799460Y-72807162D01*
X76847079Y-72759543D01*
X76942317Y-72711924D01*
X77132793Y-72664305D01*
X77370889Y-72664305D01*
X77561365Y-72711924D01*
X77656603Y-72759543D01*
X77704222Y-72807162D01*
X77751841Y-72902400D01*
X77751841Y-72997639D01*
X77704222Y-73092877D01*
X77656603Y-73140496D01*
X77561365Y-73188115D01*
X77370889Y-73235734D01*
X77132793Y-73235734D01*
X76942317Y-73188115D01*
X76847079Y-73140496D01*
X76799460Y-73092877D01*
X76751841Y-72997639D01*
X77085174Y-71807162D02*
X77751841Y-71807162D01*
X76704222Y-72045258D02*
X77418508Y-72283353D01*
X77418508Y-71664305D01*
X77952381Y-66869047D02*
X77476190Y-67202381D01*
X77952381Y-67440476D02*
X76952381Y-67440476D01*
X76952381Y-67059523D01*
X77000000Y-66964285D01*
X77047619Y-66916666D01*
X77142857Y-66869047D01*
X77285714Y-66869047D01*
X77380952Y-66916666D01*
X77428571Y-66964285D01*
X77476190Y-67059523D01*
X77476190Y-67440476D01*
X76952381Y-66535714D02*
X76952381Y-65916666D01*
X77333333Y-66250000D01*
X77333333Y-66107142D01*
X77380952Y-66011904D01*
X77428571Y-65964285D01*
X77523810Y-65916666D01*
X77761905Y-65916666D01*
X77857143Y-65964285D01*
X77904762Y-66011904D01*
X77952381Y-66107142D01*
X77952381Y-66392857D01*
X77904762Y-66488095D01*
X77857143Y-66535714D01*
X76952381Y-65297619D02*
X76952381Y-65202380D01*
X77000000Y-65107142D01*
X77047619Y-65059523D01*
X77142857Y-65011904D01*
X77333333Y-64964285D01*
X77571429Y-64964285D01*
X77761905Y-65011904D01*
X77857143Y-65059523D01*
X77904762Y-65107142D01*
X77952381Y-65202380D01*
X77952381Y-65297619D01*
X77904762Y-65392857D01*
X77857143Y-65440476D01*
X77761905Y-65488095D01*
X77571429Y-65535714D01*
X77333333Y-65535714D01*
X77142857Y-65488095D01*
X77047619Y-65440476D01*
X77000000Y-65392857D01*
X76952381Y-65297619D01*
X76952381Y-64059523D02*
X76952381Y-64535714D01*
X77428571Y-64583333D01*
X77380952Y-64535714D01*
X77333333Y-64440476D01*
X77333333Y-64202380D01*
X77380952Y-64107142D01*
X77428571Y-64059523D01*
X77523810Y-64011904D01*
X77761905Y-64011904D01*
X77857143Y-64059523D01*
X77904762Y-64107142D01*
X77952381Y-64202380D01*
X77952381Y-64440476D01*
X77904762Y-64535714D01*
X77857143Y-64583333D01*
X61702381Y-55119047D02*
X61226190Y-55452381D01*
X61702381Y-55690476D02*
X60702381Y-55690476D01*
X60702381Y-55309523D01*
X60750000Y-55214285D01*
X60797619Y-55166666D01*
X60892857Y-55119047D01*
X61035714Y-55119047D01*
X61130952Y-55166666D01*
X61178571Y-55214285D01*
X61226190Y-55309523D01*
X61226190Y-55690476D01*
X60702381Y-54785714D02*
X60702381Y-54166666D01*
X61083333Y-54500000D01*
X61083333Y-54357142D01*
X61130952Y-54261904D01*
X61178571Y-54214285D01*
X61273810Y-54166666D01*
X61511905Y-54166666D01*
X61607143Y-54214285D01*
X61654762Y-54261904D01*
X61702381Y-54357142D01*
X61702381Y-54642857D01*
X61654762Y-54738095D01*
X61607143Y-54785714D01*
X60702381Y-53547619D02*
X60702381Y-53452380D01*
X60750000Y-53357142D01*
X60797619Y-53309523D01*
X60892857Y-53261904D01*
X61083333Y-53214285D01*
X61321429Y-53214285D01*
X61511905Y-53261904D01*
X61607143Y-53309523D01*
X61654762Y-53357142D01*
X61702381Y-53452380D01*
X61702381Y-53547619D01*
X61654762Y-53642857D01*
X61607143Y-53690476D01*
X61511905Y-53738095D01*
X61321429Y-53785714D01*
X61083333Y-53785714D01*
X60892857Y-53738095D01*
X60797619Y-53690476D01*
X60750000Y-53642857D01*
X60702381Y-53547619D01*
X60702381Y-52357142D02*
X60702381Y-52547619D01*
X60750000Y-52642857D01*
X60797619Y-52690476D01*
X60940476Y-52785714D01*
X61130952Y-52833333D01*
X61511905Y-52833333D01*
X61607143Y-52785714D01*
X61654762Y-52738095D01*
X61702381Y-52642857D01*
X61702381Y-52452380D01*
X61654762Y-52357142D01*
X61607143Y-52309523D01*
X61511905Y-52261904D01*
X61273810Y-52261904D01*
X61178571Y-52309523D01*
X61130952Y-52357142D01*
X61083333Y-52452380D01*
X61083333Y-52642857D01*
X61130952Y-52738095D01*
X61178571Y-52785714D01*
X61273810Y-52833333D01*
X104880953Y-49702381D02*
X104547619Y-49226190D01*
X104309524Y-49702381D02*
X104309524Y-48702381D01*
X104690477Y-48702381D01*
X104785715Y-48750000D01*
X104833334Y-48797619D01*
X104880953Y-48892857D01*
X104880953Y-49035714D01*
X104833334Y-49130952D01*
X104785715Y-49178571D01*
X104690477Y-49226190D01*
X104309524Y-49226190D01*
X105214286Y-48702381D02*
X105833334Y-48702381D01*
X105500000Y-49083333D01*
X105642858Y-49083333D01*
X105738096Y-49130952D01*
X105785715Y-49178571D01*
X105833334Y-49273810D01*
X105833334Y-49511905D01*
X105785715Y-49607143D01*
X105738096Y-49654762D01*
X105642858Y-49702381D01*
X105357143Y-49702381D01*
X105261905Y-49654762D01*
X105214286Y-49607143D01*
X106452381Y-48702381D02*
X106547620Y-48702381D01*
X106642858Y-48750000D01*
X106690477Y-48797619D01*
X106738096Y-48892857D01*
X106785715Y-49083333D01*
X106785715Y-49321429D01*
X106738096Y-49511905D01*
X106690477Y-49607143D01*
X106642858Y-49654762D01*
X106547620Y-49702381D01*
X106452381Y-49702381D01*
X106357143Y-49654762D01*
X106309524Y-49607143D01*
X106261905Y-49511905D01*
X106214286Y-49321429D01*
X106214286Y-49083333D01*
X106261905Y-48892857D01*
X106309524Y-48797619D01*
X106357143Y-48750000D01*
X106452381Y-48702381D01*
X107119048Y-48702381D02*
X107785715Y-48702381D01*
X107357143Y-49702381D01*
X115630953Y-48702381D02*
X115297619Y-48226190D01*
X115059524Y-48702381D02*
X115059524Y-47702381D01*
X115440477Y-47702381D01*
X115535715Y-47750000D01*
X115583334Y-47797619D01*
X115630953Y-47892857D01*
X115630953Y-48035714D01*
X115583334Y-48130952D01*
X115535715Y-48178571D01*
X115440477Y-48226190D01*
X115059524Y-48226190D01*
X115964286Y-47702381D02*
X116583334Y-47702381D01*
X116250000Y-48083333D01*
X116392858Y-48083333D01*
X116488096Y-48130952D01*
X116535715Y-48178571D01*
X116583334Y-48273810D01*
X116583334Y-48511905D01*
X116535715Y-48607143D01*
X116488096Y-48654762D01*
X116392858Y-48702381D01*
X116107143Y-48702381D01*
X116011905Y-48654762D01*
X115964286Y-48607143D01*
X117202381Y-47702381D02*
X117297620Y-47702381D01*
X117392858Y-47750000D01*
X117440477Y-47797619D01*
X117488096Y-47892857D01*
X117535715Y-48083333D01*
X117535715Y-48321429D01*
X117488096Y-48511905D01*
X117440477Y-48607143D01*
X117392858Y-48654762D01*
X117297620Y-48702381D01*
X117202381Y-48702381D01*
X117107143Y-48654762D01*
X117059524Y-48607143D01*
X117011905Y-48511905D01*
X116964286Y-48321429D01*
X116964286Y-48083333D01*
X117011905Y-47892857D01*
X117059524Y-47797619D01*
X117107143Y-47750000D01*
X117202381Y-47702381D01*
X118107143Y-48130952D02*
X118011905Y-48083333D01*
X117964286Y-48035714D01*
X117916667Y-47940476D01*
X117916667Y-47892857D01*
X117964286Y-47797619D01*
X118011905Y-47750000D01*
X118107143Y-47702381D01*
X118297620Y-47702381D01*
X118392858Y-47750000D01*
X118440477Y-47797619D01*
X118488096Y-47892857D01*
X118488096Y-47940476D01*
X118440477Y-48035714D01*
X118392858Y-48083333D01*
X118297620Y-48130952D01*
X118107143Y-48130952D01*
X118011905Y-48178571D01*
X117964286Y-48226190D01*
X117916667Y-48321429D01*
X117916667Y-48511905D01*
X117964286Y-48607143D01*
X118011905Y-48654762D01*
X118107143Y-48702381D01*
X118297620Y-48702381D01*
X118392858Y-48654762D01*
X118440477Y-48607143D01*
X118488096Y-48511905D01*
X118488096Y-48321429D01*
X118440477Y-48226190D01*
X118392858Y-48178571D01*
X118297620Y-48130952D01*
M02*
