G04 #@! TF.FileFunction,Soldermask,Top*
%FSLAX46Y46*%
G04 Gerber Fmt 4.6, Leading zero omitted, Abs format (unit mm)*
G04 Created by KiCad (PCBNEW 4.0.4-stable) date Monday, December 05, 2016 'PMt' 07:15:31 PM*
%MOMM*%
%LPD*%
G01*
G04 APERTURE LIST*
%ADD10C,0.100000*%
%ADD11R,1.600000X1.600000*%
%ADD12C,1.600000*%
%ADD13R,1.700000X1.700000*%
%ADD14C,1.700000*%
%ADD15O,1.924000X2.599640*%
%ADD16O,1.924000X2.597100*%
%ADD17O,2.599640X1.901140*%
%ADD18O,1.901140X2.599640*%
%ADD19C,2.398980*%
G04 APERTURE END LIST*
D10*
D11*
X79250000Y-37250000D03*
D12*
X79250000Y-39750000D03*
D11*
X47500000Y-66000000D03*
D12*
X47500000Y-63500000D03*
D11*
X83750000Y-46250000D03*
D12*
X86250000Y-46250000D03*
D11*
X97250000Y-39750000D03*
D12*
X97250000Y-37250000D03*
D13*
X114000000Y-72500000D03*
D14*
X116000000Y-72500000D03*
D13*
X87250000Y-72500000D03*
D14*
X89250000Y-72500000D03*
D15*
X120280000Y-51630000D03*
X117740000Y-51630000D03*
X115200000Y-51630000D03*
X112660000Y-51630000D03*
X110120000Y-51630000D03*
X107580000Y-51630000D03*
X105040000Y-51630000D03*
X102500000Y-51630000D03*
X99960000Y-51630000D03*
X97420000Y-51630000D03*
X94880000Y-51630000D03*
X92340000Y-51630000D03*
X89800000Y-51630000D03*
X87260000Y-51630000D03*
X84720000Y-51630000D03*
X84720000Y-66870000D03*
X87260000Y-66870000D03*
X89800000Y-66870000D03*
X92340000Y-66870000D03*
D16*
X94880000Y-66870000D03*
X97420000Y-66870000D03*
X99960000Y-66870000D03*
X102500000Y-66870000D03*
X105040000Y-66870000D03*
X107580000Y-66870000D03*
X110120000Y-66870000D03*
X112660000Y-66870000D03*
X115200000Y-66870000D03*
X117740000Y-66870000D03*
X120280000Y-66870000D03*
D17*
X57310000Y-49370000D03*
X57310000Y-46830000D03*
X57310000Y-44290000D03*
X57310000Y-41750000D03*
X57310000Y-39210000D03*
X57310000Y-36670000D03*
X57310000Y-34130000D03*
X49690000Y-34130000D03*
X49690000Y-36670000D03*
X49690000Y-39210000D03*
X49690000Y-41750000D03*
X49690000Y-44290000D03*
X49690000Y-46830000D03*
X49690000Y-49370000D03*
X66690000Y-34380000D03*
X66690000Y-36920000D03*
X66690000Y-39460000D03*
X66690000Y-42000000D03*
X66690000Y-44540000D03*
X66690000Y-47080000D03*
X66690000Y-49620000D03*
X74310000Y-49620000D03*
X74310000Y-47080000D03*
X74310000Y-44540000D03*
X74310000Y-42000000D03*
X74310000Y-39460000D03*
X74310000Y-36920000D03*
X74310000Y-34380000D03*
D18*
X83940000Y-42310000D03*
X86480000Y-42310000D03*
X89020000Y-42310000D03*
X91560000Y-42310000D03*
X91560000Y-34690000D03*
X89020000Y-34690000D03*
X86480000Y-34690000D03*
X83940000Y-34690000D03*
X51630000Y-73310000D03*
X54170000Y-73310000D03*
X56710000Y-73310000D03*
X59250000Y-73310000D03*
X61790000Y-73310000D03*
X64330000Y-73310000D03*
X66870000Y-73310000D03*
X66870000Y-65690000D03*
X64330000Y-65690000D03*
X61790000Y-65690000D03*
X59250000Y-65690000D03*
X56710000Y-65690000D03*
X54170000Y-65690000D03*
X51630000Y-65690000D03*
X102690000Y-42310000D03*
X105230000Y-42310000D03*
X107770000Y-42310000D03*
X110310000Y-42310000D03*
X110310000Y-34690000D03*
X107770000Y-34690000D03*
X105230000Y-34690000D03*
X102690000Y-34690000D03*
D19*
X54250640Y-57500000D03*
X59251900Y-57500000D03*
X71500000Y-60749360D03*
X71500000Y-55748100D03*
X67000000Y-55750640D03*
X67000000Y-60751900D03*
X74000000Y-68250640D03*
X74000000Y-73251900D03*
X77500000Y-60749360D03*
X77500000Y-55748100D03*
X63000000Y-60749360D03*
X63000000Y-55748100D03*
X110499360Y-47250000D03*
X105498100Y-47250000D03*
X119499360Y-45000000D03*
X114498100Y-45000000D03*
M02*
