G04 #@! TF.FileFunction,Copper,L1,Top,Signal*
%FSLAX46Y46*%
G04 Gerber Fmt 4.6, Leading zero omitted, Abs format (unit mm)*
G04 Created by KiCad (PCBNEW 4.0.4-stable) date Monday, December 05, 2016 'PMt' 07:15:31 PM*
%MOMM*%
%LPD*%
G01*
G04 APERTURE LIST*
%ADD10C,0.100000*%
%ADD11R,1.200000X1.200000*%
%ADD12C,1.200000*%
%ADD13R,1.300000X1.300000*%
%ADD14C,1.300000*%
%ADD15O,1.524000X2.199640*%
%ADD16O,1.524000X2.197100*%
%ADD17O,2.199640X1.501140*%
%ADD18O,1.501140X2.199640*%
%ADD19C,1.998980*%
%ADD20C,0.600000*%
%ADD21C,0.400000*%
%ADD22C,0.250000*%
G04 APERTURE END LIST*
D10*
D11*
X79250000Y-37250000D03*
D12*
X79250000Y-39750000D03*
D11*
X47500000Y-66000000D03*
D12*
X47500000Y-63500000D03*
D11*
X83750000Y-46250000D03*
D12*
X86250000Y-46250000D03*
D11*
X97250000Y-39750000D03*
D12*
X97250000Y-37250000D03*
D13*
X114000000Y-72500000D03*
D14*
X116000000Y-72500000D03*
D13*
X87250000Y-72500000D03*
D14*
X89250000Y-72500000D03*
D15*
X120280000Y-51630000D03*
X117740000Y-51630000D03*
X115200000Y-51630000D03*
X112660000Y-51630000D03*
X110120000Y-51630000D03*
X107580000Y-51630000D03*
X105040000Y-51630000D03*
X102500000Y-51630000D03*
X99960000Y-51630000D03*
X97420000Y-51630000D03*
X94880000Y-51630000D03*
X92340000Y-51630000D03*
X89800000Y-51630000D03*
X87260000Y-51630000D03*
X84720000Y-51630000D03*
X84720000Y-66870000D03*
X87260000Y-66870000D03*
X89800000Y-66870000D03*
X92340000Y-66870000D03*
D16*
X94880000Y-66870000D03*
X97420000Y-66870000D03*
X99960000Y-66870000D03*
X102500000Y-66870000D03*
X105040000Y-66870000D03*
X107580000Y-66870000D03*
X110120000Y-66870000D03*
X112660000Y-66870000D03*
X115200000Y-66870000D03*
X117740000Y-66870000D03*
X120280000Y-66870000D03*
D17*
X57310000Y-49370000D03*
X57310000Y-46830000D03*
X57310000Y-44290000D03*
X57310000Y-41750000D03*
X57310000Y-39210000D03*
X57310000Y-36670000D03*
X57310000Y-34130000D03*
X49690000Y-34130000D03*
X49690000Y-36670000D03*
X49690000Y-39210000D03*
X49690000Y-41750000D03*
X49690000Y-44290000D03*
X49690000Y-46830000D03*
X49690000Y-49370000D03*
X66690000Y-34380000D03*
X66690000Y-36920000D03*
X66690000Y-39460000D03*
X66690000Y-42000000D03*
X66690000Y-44540000D03*
X66690000Y-47080000D03*
X66690000Y-49620000D03*
X74310000Y-49620000D03*
X74310000Y-47080000D03*
X74310000Y-44540000D03*
X74310000Y-42000000D03*
X74310000Y-39460000D03*
X74310000Y-36920000D03*
X74310000Y-34380000D03*
D18*
X83940000Y-42310000D03*
X86480000Y-42310000D03*
X89020000Y-42310000D03*
X91560000Y-42310000D03*
X91560000Y-34690000D03*
X89020000Y-34690000D03*
X86480000Y-34690000D03*
X83940000Y-34690000D03*
X51630000Y-73310000D03*
X54170000Y-73310000D03*
X56710000Y-73310000D03*
X59250000Y-73310000D03*
X61790000Y-73310000D03*
X64330000Y-73310000D03*
X66870000Y-73310000D03*
X66870000Y-65690000D03*
X64330000Y-65690000D03*
X61790000Y-65690000D03*
X59250000Y-65690000D03*
X56710000Y-65690000D03*
X54170000Y-65690000D03*
X51630000Y-65690000D03*
X102690000Y-42310000D03*
X105230000Y-42310000D03*
X107770000Y-42310000D03*
X110310000Y-42310000D03*
X110310000Y-34690000D03*
X107770000Y-34690000D03*
X105230000Y-34690000D03*
X102690000Y-34690000D03*
D19*
X54250640Y-57500000D03*
X59251900Y-57500000D03*
X71500000Y-60749360D03*
X71500000Y-55748100D03*
X67000000Y-55750640D03*
X67000000Y-60751900D03*
X74000000Y-68250640D03*
X74000000Y-73251900D03*
X77500000Y-60749360D03*
X77500000Y-55748100D03*
X63000000Y-60749360D03*
X63000000Y-55748100D03*
X110499360Y-47250000D03*
X105498100Y-47250000D03*
X119499360Y-45000000D03*
X114498100Y-45000000D03*
D20*
X89000000Y-48250000D03*
X86000000Y-48250000D03*
X71750000Y-58500000D03*
X74250000Y-55000000D03*
X65250000Y-68250000D03*
X88500000Y-65000000D03*
X85000000Y-65000000D03*
X83250000Y-65500000D03*
X86000000Y-62500000D03*
X82500000Y-64500000D03*
X85000000Y-61750000D03*
X59250000Y-48500000D03*
D21*
X114000000Y-72500000D02*
X114000000Y-71250000D01*
X112660000Y-69910000D02*
X112660000Y-66870000D01*
X114000000Y-71250000D02*
X112660000Y-69910000D01*
X119499360Y-45000000D02*
X121500000Y-45000000D01*
X121500000Y-45000000D02*
X122500000Y-44000000D01*
X83940000Y-34690000D02*
X81810000Y-34690000D01*
X81810000Y-34690000D02*
X79250000Y-37250000D01*
X102690000Y-34690000D02*
X99810000Y-34690000D01*
X99810000Y-34690000D02*
X97250000Y-37250000D01*
X103000000Y-31500000D02*
X102500000Y-32000000D01*
X102500000Y-32000000D02*
X102500000Y-34500000D01*
X102500000Y-34500000D02*
X102690000Y-34690000D01*
X47500000Y-66000000D02*
X47500000Y-68320000D01*
X47500000Y-68320000D02*
X48250000Y-69070000D01*
X48250000Y-72000000D02*
X48250000Y-69070000D01*
X103750000Y-75500000D02*
X50250000Y-75500000D01*
X50250000Y-75500000D02*
X48250000Y-73500000D01*
X48250000Y-73500000D02*
X48250000Y-72000000D01*
X112380000Y-66870000D02*
X103750000Y-75500000D01*
X48250000Y-69070000D02*
X51630000Y-65690000D01*
X112660000Y-66870000D02*
X112380000Y-66870000D01*
X66690000Y-39460000D02*
X66710000Y-39460000D01*
X66710000Y-39460000D02*
X69000000Y-41750000D01*
X69000000Y-42230000D02*
X66690000Y-44540000D01*
X69000000Y-41750000D02*
X69000000Y-42230000D01*
X86250000Y-31500000D02*
X74650000Y-31500000D01*
X74650000Y-31500000D02*
X66690000Y-39460000D01*
X83940000Y-34690000D02*
X83940000Y-33810000D01*
X83940000Y-33810000D02*
X86250000Y-31500000D01*
X86250000Y-31500000D02*
X103000000Y-31500000D01*
X103000000Y-31500000D02*
X103130000Y-31500000D01*
X112660000Y-66870000D02*
X112660000Y-66090000D01*
X112660000Y-66090000D02*
X122500000Y-56250000D01*
X122500000Y-56250000D02*
X122500000Y-44000000D01*
X122500000Y-44000000D02*
X122500000Y-40500000D01*
X122500000Y-40500000D02*
X113500000Y-31500000D01*
X113500000Y-31500000D02*
X103130000Y-31500000D01*
X63000000Y-55748100D02*
X63000000Y-56500000D01*
X63000000Y-56500000D02*
X62000000Y-57500000D01*
X62000000Y-57500000D02*
X59251900Y-57500000D01*
D22*
X83750000Y-46250000D02*
X84000000Y-46250000D01*
X84000000Y-46250000D02*
X86000000Y-48250000D01*
X106210000Y-40750000D02*
X107770000Y-42310000D01*
X96500000Y-40750000D02*
X106210000Y-40750000D01*
X89000000Y-48250000D02*
X96500000Y-40750000D01*
X64330000Y-65690000D02*
X64560000Y-65690000D01*
X64560000Y-65690000D02*
X71750000Y-58500000D01*
X74250000Y-55000000D02*
X83000000Y-46250000D01*
X83000000Y-46250000D02*
X83750000Y-46250000D01*
X83750000Y-46250000D02*
X83750000Y-42500000D01*
X83750000Y-42500000D02*
X83940000Y-42310000D01*
X65250000Y-68250000D02*
X62250000Y-71250000D01*
X62250000Y-71250000D02*
X61310000Y-71250000D01*
X61310000Y-71250000D02*
X59250000Y-73310000D01*
X54170000Y-73310000D02*
X54170000Y-69170000D01*
X84170000Y-40000000D02*
X86480000Y-42310000D01*
X83250000Y-40000000D02*
X84170000Y-40000000D01*
X81500000Y-41750000D02*
X83250000Y-40000000D01*
X81500000Y-45750000D02*
X81500000Y-41750000D01*
X74500000Y-52750000D02*
X81500000Y-45750000D01*
X67500000Y-52750000D02*
X74500000Y-52750000D01*
X65000000Y-55250000D02*
X67500000Y-52750000D01*
X65000000Y-56500000D02*
X65000000Y-55250000D01*
X62500000Y-59000000D02*
X65000000Y-56500000D01*
X58500000Y-59000000D02*
X62500000Y-59000000D01*
X53000000Y-64500000D02*
X58500000Y-59000000D01*
X53000000Y-68000000D02*
X53000000Y-64500000D01*
X54170000Y-69170000D02*
X53000000Y-68000000D01*
X54170000Y-73310000D02*
X54170000Y-72580000D01*
X54170000Y-72580000D02*
X55250000Y-71500000D01*
X55250000Y-71500000D02*
X57440000Y-71500000D01*
X57440000Y-71500000D02*
X59250000Y-73310000D01*
X86250000Y-46250000D02*
X86250000Y-42540000D01*
X86250000Y-42540000D02*
X86480000Y-42310000D01*
D21*
X74000000Y-68250640D02*
X74250640Y-68250640D01*
X74250640Y-68250640D02*
X78500000Y-72500000D01*
X78500000Y-72500000D02*
X87250000Y-72500000D01*
X87250000Y-72500000D02*
X87250000Y-66880000D01*
X87250000Y-66880000D02*
X87260000Y-66870000D01*
X77500000Y-60749360D02*
X71500000Y-60749360D01*
X87260000Y-66870000D02*
X87260000Y-65760000D01*
X82249360Y-60749360D02*
X71500000Y-60749360D01*
X87260000Y-65760000D02*
X82249360Y-60749360D01*
D22*
X110499360Y-47250000D02*
X110499360Y-51250640D01*
X110499360Y-51250640D02*
X110120000Y-51630000D01*
X114500000Y-43500000D02*
X114500000Y-44998100D01*
X114500000Y-44998100D02*
X114498100Y-45000000D01*
X105230000Y-34690000D02*
X105230000Y-35480000D01*
X105230000Y-35480000D02*
X106500000Y-36750000D01*
X106500000Y-36750000D02*
X111250000Y-36750000D01*
X111250000Y-36750000D02*
X114500000Y-40000000D01*
X114500000Y-40000000D02*
X114500000Y-43500000D01*
X114500000Y-43500000D02*
X114500000Y-47250000D01*
X114500000Y-47250000D02*
X110120000Y-51630000D01*
X81250000Y-62500000D02*
X82500000Y-62500000D01*
X54170000Y-67170000D02*
X54250000Y-67250000D01*
X54250000Y-67250000D02*
X69750000Y-67250000D01*
X69750000Y-67250000D02*
X72250000Y-64750000D01*
X72250000Y-64750000D02*
X79000000Y-64750000D01*
X79000000Y-64750000D02*
X81250000Y-62500000D01*
X54170000Y-65690000D02*
X54170000Y-67170000D01*
X100130000Y-54000000D02*
X102500000Y-51630000D01*
X99500000Y-54000000D02*
X100130000Y-54000000D01*
X88500000Y-65000000D02*
X99500000Y-54000000D01*
X82500000Y-62500000D02*
X85000000Y-65000000D01*
X64330000Y-73310000D02*
X64330000Y-72670000D01*
X64330000Y-72670000D02*
X68000000Y-69000000D01*
X68000000Y-69000000D02*
X70750000Y-69000000D01*
X70750000Y-69000000D02*
X73000000Y-66750000D01*
X73000000Y-66750000D02*
X82000000Y-66750000D01*
X82000000Y-66750000D02*
X83250000Y-65500000D01*
X86000000Y-62500000D02*
X91750000Y-56750000D01*
X91750000Y-56750000D02*
X94840000Y-56750000D01*
X94840000Y-56750000D02*
X99960000Y-51630000D01*
X61790000Y-73310000D02*
X61940000Y-73310000D01*
X61940000Y-73310000D02*
X67250000Y-68000000D01*
X67250000Y-68000000D02*
X70500000Y-68000000D01*
X70500000Y-68000000D02*
X72750000Y-65750000D01*
X72750000Y-65750000D02*
X81250000Y-65750000D01*
X81250000Y-65750000D02*
X82500000Y-64500000D01*
X85000000Y-61750000D02*
X85750000Y-61000000D01*
X85750000Y-61000000D02*
X85750000Y-52660000D01*
X85750000Y-52660000D02*
X84720000Y-51630000D01*
X57310000Y-34130000D02*
X66440000Y-34130000D01*
X66440000Y-34130000D02*
X66690000Y-34380000D01*
X57310000Y-36670000D02*
X57310000Y-36690000D01*
X57310000Y-36690000D02*
X55250000Y-38750000D01*
X55250000Y-44770000D02*
X57310000Y-46830000D01*
X55250000Y-38750000D02*
X55250000Y-44770000D01*
X49690000Y-34130000D02*
X49690000Y-36670000D01*
X57310000Y-36670000D02*
X49690000Y-36670000D01*
X57310000Y-46830000D02*
X49690000Y-46830000D01*
X57310000Y-46830000D02*
X59080000Y-46830000D01*
X61870000Y-49620000D02*
X66690000Y-49620000D01*
X59080000Y-46830000D02*
X61870000Y-49620000D01*
X56750000Y-57500000D02*
X54250640Y-57500000D01*
X59250000Y-55000000D02*
X56750000Y-57500000D01*
X59250000Y-48500000D02*
X59250000Y-55000000D01*
X57310000Y-44290000D02*
X57960000Y-44290000D01*
X57960000Y-44290000D02*
X59000000Y-43250000D01*
X59000000Y-40900000D02*
X57310000Y-39210000D01*
X59000000Y-43250000D02*
X59000000Y-40900000D01*
X105498100Y-47250000D02*
X105498100Y-45788100D01*
X105498100Y-45788100D02*
X105230000Y-45520000D01*
X63000000Y-60749360D02*
X64250640Y-60749360D01*
X75748100Y-57500000D02*
X77500000Y-55748100D01*
X67500000Y-57500000D02*
X75748100Y-57500000D01*
X64250640Y-60749360D02*
X67500000Y-57500000D01*
X77500000Y-55748100D02*
X77501900Y-55748100D01*
X77501900Y-55748100D02*
X83500000Y-49750000D01*
X83500000Y-49750000D02*
X101000000Y-49750000D01*
X101000000Y-49750000D02*
X105230000Y-45520000D01*
X105230000Y-45520000D02*
X105230000Y-42310000D01*
X71500000Y-55748100D02*
X67002540Y-55748100D01*
X67002540Y-55748100D02*
X67000000Y-55750640D01*
X71500000Y-55748100D02*
X74501900Y-55748100D01*
X89020000Y-46730000D02*
X89020000Y-42310000D01*
X86750000Y-49000000D02*
X89020000Y-46730000D01*
X81250000Y-49000000D02*
X86750000Y-49000000D01*
X74501900Y-55748100D02*
X81250000Y-49000000D01*
M02*
